<?xml version="1.0" encoding="utf-8"?>
<svg xmlns="http://www.w3.org/2000/svg" xmlns:xlink="http://www.w3.org/1999/xlink" style="margin: auto; background: none; display: block; shape-rendering: auto;" width="201px" height="201px" viewBox="0 0 100 100" preserveAspectRatio="xMidYMid">
<g transform="rotate(0 50 50)">
  <rect x="45.5" y="23.5" rx="4.5" ry="4.5" width="9" height="9" fill="#295b85">
    <animate attributeName="opacity" values="1;0" keyTimes="0;1" dur="1.6949152542372883s" begin="-1.5408320493066257s" repeatCount="indefinite"></animate>
  </rect>
</g><g transform="rotate(32.72727272727273 50 50)">
  <rect x="45.5" y="23.5" rx="4.5" ry="4.5" width="9" height="9" fill="#295b85">
    <animate attributeName="opacity" values="1;0" keyTimes="0;1" dur="1.6949152542372883s" begin="-1.3867488443759632s" repeatCount="indefinite"></animate>
  </rect>
</g><g transform="rotate(65.45454545454545 50 50)">
  <rect x="45.5" y="23.5" rx="4.5" ry="4.5" width="9" height="9" fill="#295b85">
    <animate attributeName="opacity" values="1;0" keyTimes="0;1" dur="1.6949152542372883s" begin="-1.2326656394453006s" repeatCount="indefinite"></animate>
  </rect>
</g><g transform="rotate(98.18181818181819 50 50)">
  <rect x="45.5" y="23.5" rx="4.5" ry="4.5" width="9" height="9" fill="#295b85">
    <animate attributeName="opacity" values="1;0" keyTimes="0;1" dur="1.6949152542372883s" begin="-1.078582434514638s" repeatCount="indefinite"></animate>
  </rect>
</g><g transform="rotate(130.9090909090909 50 50)">
  <rect x="45.5" y="23.5" rx="4.5" ry="4.5" width="9" height="9" fill="#295b85">
    <animate attributeName="opacity" values="1;0" keyTimes="0;1" dur="1.6949152542372883s" begin="-0.9244992295839755s" repeatCount="indefinite"></animate>
  </rect>
</g><g transform="rotate(163.63636363636363 50 50)">
  <rect x="45.5" y="23.5" rx="4.5" ry="4.5" width="9" height="9" fill="#295b85">
    <animate attributeName="opacity" values="1;0" keyTimes="0;1" dur="1.6949152542372883s" begin="-0.7704160246533128s" repeatCount="indefinite"></animate>
  </rect>
</g><g transform="rotate(196.36363636363637 50 50)">
  <rect x="45.5" y="23.5" rx="4.5" ry="4.5" width="9" height="9" fill="#295b85">
    <animate attributeName="opacity" values="1;0" keyTimes="0;1" dur="1.6949152542372883s" begin="-0.6163328197226503s" repeatCount="indefinite"></animate>
  </rect>
</g><g transform="rotate(229.0909090909091 50 50)">
  <rect x="45.5" y="23.5" rx="4.5" ry="4.5" width="9" height="9" fill="#295b85">
    <animate attributeName="opacity" values="1;0" keyTimes="0;1" dur="1.6949152542372883s" begin="-0.46224961479198773s" repeatCount="indefinite"></animate>
  </rect>
</g><g transform="rotate(261.8181818181818 50 50)">
  <rect x="45.5" y="23.5" rx="4.5" ry="4.5" width="9" height="9" fill="#295b85">
    <animate attributeName="opacity" values="1;0" keyTimes="0;1" dur="1.6949152542372883s" begin="-0.30816640986132515s" repeatCount="indefinite"></animate>
  </rect>
</g><g transform="rotate(294.54545454545456 50 50)">
  <rect x="45.5" y="23.5" rx="4.5" ry="4.5" width="9" height="9" fill="#295b85">
    <animate attributeName="opacity" values="1;0" keyTimes="0;1" dur="1.6949152542372883s" begin="-0.15408320493066258s" repeatCount="indefinite"></animate>
  </rect>
</g><g transform="rotate(327.27272727272725 50 50)">
  <rect x="45.5" y="23.5" rx="4.5" ry="4.5" width="9" height="9" fill="#295b85">
    <animate attributeName="opacity" values="1;0" keyTimes="0;1" dur="1.6949152542372883s" begin="0s" repeatCount="indefinite"></animate>
  </rect>
</g>
<!-- [ldio] generated by https://loading.io/ --></svg>