<svg data-v-b958e0a2="" xmlns="http://www.w3.org/2000/svg" width="32" height="32" viewBox="0 0 511.999 511.999" aria-labelledby="monitoring-24" role="presentation"><title id="monitoring-24" lang="en">monitoring-24 icon</title><g fill="currentColor"><g data-v-b958e0a2=""><path d="m7.5 137.5c4.140625 0 7.5-3.355469 7.5-7.5v-20c0-4.144531-3.359375-7.5-7.5-7.5s-7.5 3.355469-7.5 7.5v20c0 4.144531 3.359375 7.5 7.5 7.5zm0 0"></path><path d="m488.5 24h-49.851562v-12.5c0-6.339844-5.15625-11.5-11.5-11.5h-17.917969c-16.265625 0-31.5625 7.132812-42.035157 19.140625-10.226562-11.722656-25.261718-19.140625-42.003906-19.140625h-17.921875c-6.339843 0-11.5 5.160156-11.5 11.5v12.5h-272.269531c-12.957031 0-23.5 10.542969-23.5 23.5v30.167969c0 4.140625 3.359375 7.5 7.5 7.5s7.5-3.359375 7.5-7.5v-30.167969c0-4.6875 3.8125-8.5 8.5-8.5h272.394531c.320313 4.863281 1.269531 9.554688 2.765625 14h-26.660156c-6.339844 0-11.5 5.160156-11.5 11.5v102c0 6.339844 5.160156 11.5 11.5 11.5h191c6.339844 0 11.5-5.160156 11.5-11.5v-102c0-6.339844-5.160156-11.5-11.5-11.5h-27.242188c1.496094-4.445312 2.445313-9.136719 2.769532-14h49.972656c4.6875 0 8.5 3.8125 8.5 8.5v276.5h-482v-162c0-4.144531-3.359375-7.5-7.5-7.5s-7.5 3.355469-7.5 7.5v193.5c0 12.957031 10.542969 23.5 23.5 23.5h168.996094c-4.816406 11.070312-13.269532 24.117188-28.074219 35.265625-5.339844 4.015625-7.851563 10.355469-6.820313 16.734375h-135.101562c-12.40625 0-22.5 10.09375-22.5 22.5s10.09375 22.5 22.5 22.5h467c12.40625 0 22.5-10.09375 22.5-22.5s-10.09375-22.5-22.5-22.5h-135.101562c1.027343-6.378906-1.480469-12.71875-6.816407-16.730469-14.800781-11.152343-23.25-24.199219-28.070312-35.269531h96.152343c4.144532 0 7.5-3.355469 7.5-7.5s-3.355468-7.5-7.5-7.5h-106.707031c-.105469-.003906-.207031-.003906-.3125 0h-105.285156c-.101563-.003906-.203125-.003906-.304687 0h-179.554688c-4.6875 0-8.5-3.8125-8.5-8.5v-16.5h482v16.5c0 4.6875-3.8125 8.5-8.5 8.5h-40.5c-4.140625 0-7.5 3.355469-7.5 7.5s3.359375 7.5 7.5 7.5h40.5c12.957031 0 23.5-10.542969 23.5-23.5v-308c0-12.957031-10.542969-23.5-23.5-23.5zm-79.269531-9h14.417969v20.269531c0 22.460938-18.269532 40.730469-40.726563 40.730469h-2v-20.269531c0-8.3125-1.828125-16.207031-5.105469-23.300781 7.570313-10.835938 20.046875-17.429688 33.414063-17.429688zm-84.039063 0c22.460938 0 40.730469 18.269531 40.730469 40.730469v20.269531h-14.421875c-20.742188 0-40.449219-14.9375-40.730469-44.578125v-16.421875zm134.308594 53v95h-184v-95h30.917969c10.140625 13.929688 26.570312 23 45.082031 23h7.769531v42.5h-54.769531c-4.140625 0-7.5 3.355469-7.5 7.5s3.359375 7.5 7.5 7.5h126c4.140625 0 7.5-3.355469 7.5-7.5s-3.359375-7.5-7.5-7.5h-56.230469v-42.5h8.652344c18.507813 0 34.9375-9.070312 45.078125-23zm37.5 385.5c0 4.136719-3.363281 7.5-7.5 7.5h-467c-4.136719 0-7.5-3.363281-7.5-7.5s3.363281-7.5 7.5-7.5h467c4.136719 0 7.5 3.363281 7.5 7.5zm-158.4375-27.246094c1.230469.925782 1.167969 2.085938.898438 2.894532-.273438.8125-.921876 1.78125-2.472657 1.78125h-161.96875c-1.554687 0-2.207031-.96875-2.480469-1.785157-.269531-.808593-.332031-1.964843.902344-2.894531 20.023438-15.078125 30.113282-33.183594 35.191406-47.25h94.742188c5.078125 14.0625 15.167969 32.171875 35.1875 47.253906zm0 0"></path><path d="m49 178h191c6.339844 0 11.5-5.160156 11.5-11.5v-102c0-6.339844-5.160156-11.5-11.5-11.5h-191c-6.339844 0-11.5 5.160156-11.5 11.5v102c0 6.339844 5.160156 11.5 11.5 11.5zm3.5-110h184v95h-184zm0 0"></path><path d="m37.5 299.5c0 6.339844 5.160156 11.5 11.5 11.5h191c6.339844 0 11.5-5.160156 11.5-11.5v-102c0-6.339844-5.160156-11.5-11.5-11.5h-191c-6.339844 0-11.5 5.160156-11.5 11.5zm15-98.5h184v95h-184zm0 0"></path><path d="m463 311c6.339844 0 11.5-5.160156 11.5-11.5v-102c0-6.339844-5.160156-11.5-11.5-11.5h-191c-6.339844 0-11.5 5.160156-11.5 11.5v102c0 6.339844 5.160156 11.5 11.5 11.5zm-187.5-110h184v95h-184zm0 0"></path><path d="m177.167969 103.964844-27.84375-23.035156c-3.136719-2.589844-7.511719-2.589844-10.652344.003906l-27.839844 23.03125c-3.050781 2.519531-4.148437 6.851562-2.734375 10.777344 1.171875 3.257812 3.921875 5.457031 7.152344 5.808593v24.949219c0 4.144531 3.359375 7.5 7.5 7.5h42.5c4.140625 0 7.5-3.355469 7.5-7.5v-24.949219c3.230469-.351562 5.980469-2.550781 7.152344-5.808593 1.414062-3.925782.316406-8.257813-2.734375-10.777344zm-33.167969-7.972656 11.613281 9.605468h-23.226562zm13.75 42.007812h-27.5v-17.398438h27.5zm0 0"></path><path d="m393.632812 256.117188c-7.132812-5.511719-15.640624-8.425782-24.605468-8.425782-8.992188 0-17.523438 2.929688-24.671875 8.472656-3.269531 2.539063-3.867188 7.25-1.328125 10.523438 2.546875 3.289062 7.265625 3.859375 10.519531 1.332031 4.492187-3.484375 9.847656-5.328125 15.480469-5.328125 5.613281 0 10.953125 1.832032 15.433594 5.292969 3.277343 2.535156 7.988281 1.929687 10.519531-1.347656 2.535156-3.277344 1.929687-7.988281-1.347657-10.519531zm0 0"></path><path d="m403.042969 238.691406c-9.867188-7.628906-21.632813-11.660156-34.015625-11.660156-12.417969 0-24.203125 4.046875-34.082032 11.707031-3.273437 2.539063-3.871093 7.25-1.332031 10.523438 2.550781 3.289062 7.269531 3.855469 10.523438 1.332031 7.222656-5.601562 15.832031-8.5625 24.886719-8.5625 9.035156 0 17.628906 2.949219 24.847656 8.527344 3.277344 2.53125 7.988281 1.925781 10.519531-1.347656 2.535156-3.277344 1.929687-7.988282-1.347656-10.519532zm0 0"></path><path d="m412.089844 221.765625c-12.492188-9.660156-27.382813-14.765625-43.0625-14.765625-15.714844 0-30.625 5.121094-43.125 14.8125-3.269532 2.539062-3.867188 7.25-1.332032 10.523438 2.546876 3.28125 7.261719 3.859374 10.523438 1.328124 9.84375-7.628906 21.578125-11.664062 33.933594-11.664062 12.328125 0 24.046875 4.019531 33.882812 11.632812 3.277344 2.53125 7.988282 1.929688 10.523438-1.347656 2.535156-3.273437 1.929687-7.984375-1.34375-10.519531zm0 0"></path><path d="m368.558594 268.511719c-4.144532 0-7.5 3.355469-7.5 7.5v4.488281c0 4.144531 3.355468 7.5 7.5 7.5 4.140625 0 7.5-3.355469 7.5-7.5v-4.488281c0-4.144531-3.359375-7.5-7.5-7.5zm0 0"></path></g></g></svg>