<svg data-v-f66e0a8a="" xmlns="http://www.w3.org/2000/svg" width="40" height="40" viewBox="0 0 456 456" aria-labelledby="green" role="presentation" class="has-text-primary"><title id="green" lang="en">green icon</title><g fill="#8bc540"><g data-v-f66e0a8a=""><path d="M342.6,47.2C312.2,18,271.8,0,227.4,0c-44.4,0-84.8,18-114,47.2c-29.2,29.2-47.2,69.6-47.2,114c0,32.4,9.6,62.8,26.4,88.4
			c13.2,20.4,30.8,37.6,52,50.4c-0.4,0.4-0.4,0.4-0.8,0.8c-6,6-9.6,14-9.6,23.2c0,8.8,3.6,17.2,9.6,23.2c-6,6-9.6,14-9.6,23.2
			c0,8.8,3.6,17.2,9.6,23.2c5.6,5.6,13.6,9.2,22.4,9.6c2,13.6,8.4,25.2,17.6,34.4c11.2,11.2,26.8,18.4,44,18.4s32.8-6.8,44-18.4
			c9.2-9.2,15.6-21.2,17.6-34.4c8.8-0.4,16.4-4,22.4-9.6c6-6,9.6-14,9.6-23.2s-3.6-17.2-9.6-23.2c6-6,9.6-14,9.6-23.2
			s-3.6-17.2-9.6-23.2c-0.4-0.4-0.4-0.4-0.8-0.8c21.2-12.4,38.8-30,52.4-50.4c16.4-25.2,26.4-55.6,26.4-88.4
			C389.8,116.8,371.8,76.4,342.6,47.2z M257.8,424.4c-8,8-18.8,12.8-30.4,12.8c-12,0-22.8-4.8-30.4-12.8c-5.6-5.6-10-12.8-11.6-21.2
			h42h42C267.8,411.2,263.8,418.8,257.8,424.4z M297.8,380c-2.4,2.4-6,4-9.6,4h-8h-52.8h-52.8h-8c-4,0-7.2-1.6-9.6-4
			c-2.4-2.4-4-6-4-9.6c0-4,1.6-7.2,4-9.6c2.4-2.4,6-4,9.6-4h121.2c3.6,0,7.2,1.6,9.6,4c2.8,2.4,4.4,6,4.4,9.6
			C301.8,374,300.2,377.6,297.8,380z M297.8,333.6c-2.4,2.4-6,4-9.6,4H167c-4,0-7.2-1.6-9.6-4c-2.4-2.4-4-6-4-9.6c0-4,1.6-7.2,4-9.6
			c2.4-2.4,6-4,9.6-4h121.2c3.6,0,7.2,1.6,9.6,4c2.4,2.4,4,5.6,4,9.6C301.8,327.6,300.2,331.2,297.8,333.6z M260.2,150l15.6-16.4
			c4.4,7.6,8.4,15.6,11.6,23.2c4,10.4,6.8,20.4,7.6,30c1.2,14-1.2,27.2-7.2,37.6c-6,10.4-15.2,18.8-28,23.6c-4,1.6-8.8,3.2-13.6,4
			C265,218.8,266.2,182.4,260.2,150z M255,128c-4.4-16-10.4-30.4-16.4-42.4c4,4,8,8.4,12,12.8c5.2,6,10,12.4,14.8,18.8L255,128z
			 M240.6,147.6c0,0.8,0.4,2,0.4,2.8c3.2,16.4,4.4,33.6,2,50.8l-51.2-66.4c11.6-14,22-29.2,26.4-48.8
			C226.2,102,235.4,123.6,240.6,147.6z M237.8,224.8c-3.6,10-8.4,20-15.2,29.2c-12.4-1.2-24.4-5.2-34.4-11.6
			c-8-5.2-14.8-11.6-19.6-19.2c-4.8-7.6-8-15.6-8.8-24.4c-0.8-11.2,2-23.2,9.6-35.2c2.8-4.4,6.4-8.8,10-13.2L237.8,224.8z
			 M346.6,239.6c-14.8,22.4-35.6,40.8-60.4,52H237v-18c11.2-0.8,21.2-3.2,30-6.8c17.2-6.8,29.6-18,37.6-32s10.8-30.4,9.6-48.4
			c-0.8-11.6-4-23.6-8.8-35.6c-4.8-12.4-11.6-24.8-19.2-36.8c0-0.4-0.4-0.4-0.4-0.4c-6-9.6-12.8-18.4-20-26.8
			c-16.8-19.6-35.2-34.8-52-42.4c-3.2-1.6-6.8-1.2-9.6,0.8c-3.2,2.4-4.8,6.4-3.6,10c5.6,33.2-10.8,54.4-27.2,74.4L173,130l-1.2,1.2
			c-6.4,7.6-12.4,14.8-17.2,22.8c-10.4,16-14,32-12.4,47.2c1.2,12,5.2,23.6,11.6,33.2c6.4,10,15.2,18.4,25.6,24.8
			c11.6,7.6,25.2,12.4,39.6,14.4V292h-50.4c-24.8-11.2-45.6-29.2-60.4-52C93.4,217.6,85,190.8,85,162c0-40,16-75.6,41.6-101.2
			c25.6-25.6,61.2-41.6,100.8-41.6c39.6,0,74.8,16,100.8,41.6c25.6,25.6,41.6,61.2,41.6,100.8C369.8,190.4,361.4,217.2,346.6,239.6z
			"></path></g></g></svg>