<svg data-v-b958e0a2="" xmlns="http://www.w3.org/2000/svg" width="32" height="32" viewBox="0 0 511.999 511.999" aria-labelledby="services-cfe" role="presentation"><title id="services-cfe" lang="en">services-cfe icon</title><g fill="currentColor"><g data-v-b958e0a2=""><path d="m357.25 95.617188c0-26.738282-21.753906-48.492188-48.492188-48.492188-26.742187 0-48.496093 21.753906-48.496093 48.492188 0 26.742187 21.753906 48.496093 48.496093 48.496093 26.738282 0 48.492188-21.753906 48.492188-48.496093zm-81.996094 0c0-18.472657 15.03125-33.5 33.503906-33.5 18.472657 0 33.5 15.027343 33.5 33.5 0 18.476562-15.027343 33.503906-33.5 33.503906-18.472656 0-33.503906-15.03125-33.503906-33.503906zm0 0"></path><path d="m226.15625 69.910156c4.140625 0 7.496094-3.355468 7.496094-7.496094 0-4.140624-3.355469-7.496093-7.496094-7.496093h-19.707031c-4.140625 0-7.496094 3.355469-7.496094 7.496093 0 4.140626 3.355469 7.496094 7.496094 7.496094zm0 0"></path><path d="m58.277344 69.910156h99.609375c4.140625 0 7.496093-3.355468 7.496093-7.496094 0-4.140624-3.355468-7.496093-7.496093-7.496093h-99.609375c-4.140625 0-7.496094 3.355469-7.496094 7.496093 0 4.140626 3.355469 7.496094 7.496094 7.496094zm0 0"></path><path d="m58.277344 136.316406h25.6875c4.140625 0 7.496094-3.355468 7.496094-7.496094 0-4.140624-3.355469-7.496093-7.496094-7.496093h-25.6875c-4.140625 0-7.496094 3.355469-7.496094 7.496093 0 4.140626 3.355469 7.496094 7.496094 7.496094zm0 0"></path><path d="m132.53125 121.324219c-4.140625 0-7.496094 3.355469-7.496094 7.496093 0 4.140626 3.355469 7.496094 7.496094 7.496094h16.238281c4.140625 0 7.496094-3.355468 7.496094-7.496094 0-4.140624-3.355469-7.496093-7.496094-7.496093zm0 0"></path><path d="m58.277344 103.113281h167.878906c4.140625 0 7.496094-3.355469 7.496094-7.496093 0-4.140626-3.355469-7.496094-7.496094-7.496094h-167.878906c-4.140625 0-7.496094 3.355468-7.496094 7.496094 0 4.140624 3.355469 7.496093 7.496094 7.496093zm0 0"></path><path d="m77.929688 227.332031h252.175781c14.96875 0 27.144531-12.179687 27.144531-27.148437s-12.175781-27.144532-27.144531-27.144532h-252.175781c-14.96875 0-27.148438 12.175782-27.148438 27.144532s12.179688 27.148437 27.148438 27.148437zm0-39.300781h252.175781c6.699219 0 12.152343 5.449219 12.152343 12.152344s-5.453124 12.15625-12.152343 12.15625h-252.175781c-6.703126 0-12.15625-5.453125-12.15625-12.15625s5.453124-12.152344 12.15625-12.152344zm0 0"></path><path d="m77.929688 296.09375h252.175781c14.96875 0 27.144531-12.179688 27.144531-27.148438s-12.175781-27.144531-27.144531-27.144531h-252.175781c-14.96875 0-27.148438 12.175781-27.148438 27.144531s12.179688 27.148438 27.148438 27.148438zm0-39.300781h252.175781c6.699219 0 12.152343 5.453125 12.152343 12.152343 0 6.703126-5.453124 12.15625-12.152343 12.15625h-252.175781c-6.703126 0-12.15625-5.453124-12.15625-12.15625 0-6.699218 5.453124-12.152343 12.15625-12.152343zm0 0"></path><path d="m77.929688 364.855469h252.175781c14.96875 0 27.144531-12.175781 27.144531-27.144531s-12.175781-27.148438-27.144531-27.148438h-252.175781c-14.96875 0-27.148438 12.179688-27.148438 27.148438s12.179688 27.144531 27.148438 27.144531zm0-39.300781h252.175781c6.699219 0 12.152343 5.453124 12.152343 12.15625 0 6.699218-5.453124 12.152343-12.152343 12.152343h-252.175781c-6.703126 0-12.15625-5.453125-12.15625-12.152343 0-6.703126 5.453124-12.15625 12.15625-12.15625zm0 0"></path><path d="m77.929688 433.617188h176.894531c14.96875 0 27.148437-12.175782 27.148437-27.144532s-12.179687-27.148437-27.148437-27.148437h-176.894531c-14.96875 0-27.148438 12.179687-27.148438 27.148437s12.179688 27.144532 27.148438 27.144532zm0-39.300782h176.894531c6.703125 0 12.152343 5.453125 12.152343 12.15625s-5.449218 12.152344-12.152343 12.152344h-176.894531c-6.703126 0-12.15625-5.449219-12.15625-12.152344s5.453124-12.15625 12.15625-12.15625zm0 0"></path><path d="m488.539062 400.703125h-28.328124v-25.019531c0-6.394532-3.859376-11.898438-9.363282-14.328125l10.984375-50.351563c3.152344-14.46875-.671875-29.855468-10.242187-41.160156-9.121094-10.773438-22.445313-16.953125-36.5625-16.953125-2.359375 0-4.695313.1875-6.996094.523437v-228.511718c0-13.730469-11.171875-24.902344-24.902344-24.902344h-358.226562c-13.730469 0-24.902344 11.171875-24.902344 24.902344v80.421875c0 4.140625 3.355469 7.496093 7.496094 7.496093s7.496094-3.355468 7.496094-7.496093v-80.421875c0-5.464844 4.445312-9.910156 9.910156-9.910156h358.226562c5.464844 0 9.910156 4.445312 9.910156 9.910156v233.335937c-5.503906 2.84375-10.46875 6.753907-14.578124 11.605469-5.664063 6.695312-9.382813 14.8125-10.75 23.472656-.648438 4.089844 2.144531 7.929688 6.230468 8.574219 4.097656.648437 7.929688-2.144531 8.578125-6.234375.9375-5.949219 3.492188-11.527344 7.386719-16.125 6.265625-7.402344 15.421875-11.648438 25.121094-11.648438 9.699218 0 18.855468 4.246094 25.121094 11.648438 6.574218 7.765625 9.203124 18.335938 7.035156 28.277344l-11.390625 52.214844h-41.53125l-6.996094-32.078126c-.882813-4.042968-4.871094-6.605468-8.921875-5.726562-4.046875.882812-6.609375 4.878906-5.726562 8.921875l6.589843 30.214844c-5.507812 2.429687-9.367187 7.933593-9.367187 14.328125v25.019531h-28.324219c-12.9375 0-23.464844 10.523437-23.464844 23.460937v19.101563c0 12.9375 10.527344 23.460937 23.464844 23.460937h.398437l4.550782 20.195313c.8125 3.601563 2.199218 6.933594 4.054687 9.914063h-325.617187c-5.464844 0-9.910156-4.445313-9.910156-9.910157v-347.203125c0-4.140625-3.355469-7.496094-7.496094-7.496094s-7.496094 3.355469-7.496094 7.496094v347.203125c0 13.730469 11.171875 24.90625 24.902344 24.90625l427.660156-.097656c14.976562 0 27.738281-10.203125 31.027344-24.8125l4.550781-20.195313h.398437c12.933594 0 23.460938-10.523437 23.460938-23.460937v-19.101563c0-12.9375-10.527344-23.460937-23.460938-23.460937zm-103.707031-25.019531c0-.367188.300781-.667969.667969-.667969h59.054688c.367187 0 .664062.300781.664062.667969v25.019531h-60.386719zm84.132813 107.941406c-1.742188 7.726562-8.484375 13.117188-16.402344 13.117188h-75.070312c-7.917969 0-14.660157-5.390626-16.402344-13.117188l-3.804688-16.898438h115.484375zm28.042968-40.359375c0 4.667969-3.800781 8.46875-8.46875 8.46875h-147.023437c-4.667969 0-8.46875-3.800781-8.46875-8.46875v-19.101563c0-4.671874 3.800781-8.46875 8.46875-8.46875h147.023437c4.671876 0 8.46875 3.796876 8.46875 8.46875zm0 0"></path></g></g></svg>